<?xml version="1.0" encoding="UTF-8"?>
<svg id="Layer_2_copy_2" data-name="Layer 2 copy 2" xmlns="http://www.w3.org/2000/svg" viewBox="0 0 3533.83931 3263.65593">
  <defs>
    <style>
      .cls-1 {
        fill: none;
        stroke: #0063bf;
        stroke-miterlimit: 10;
        stroke-width: 40px;
      }
    </style>
  </defs>
  <g>
    <path class="cls-1" d="m1622.06653,1605.20745c-193.01263,39.77848-435.88243-303.61756-506.6765-514.79774-72.66587-192.26948-97.62732-451.20983,20.08166-681.31147,118.39071-254.94018,443.14802-471.4632,787.4879-358.29143,317.80343,96.41608,502.77117,349.06065,540.26878,663.25276,34.85187,245.52463-59.13009,520.52357-201.96658,699.60925-11.44355,13.92828-21.77744,25.42286-34.49954,36.57991-2.23788,1.97372-5.37819,5.01731-8.30136,3.7801-2.35407-1.22074-2.179-7.907-.79481-17.91021,1.57285-11.06038,2.52993-23.04631,1.47547-35.08281-1.60418-33.5923-30.6656-75.90541-68.15547-65.59635-27.15978,11.39481-38.48604,43.39902-52.06349,67.68949-11.64132,23.50026-24.67213,51.79845-40.63342,82.81941-29.67448,58.31347-63.85314,113.37559-105.90122,163.61067-14.99226,19.30449-119.47172,136.55009-131.6284,94.40775-2.21831-12.39243-.02779-26.257.3394-39.05368,1.32107-26.06336-2.04212-50.52639-9.41939-75.54713-33.91722-106.36762-118.2432-44.35571-188.84555-24.34572l-.76746.18722Z"/>
    <path class="cls-1" d="m1765.56392,677.45945c21.86552,42.38926,59.25597,83.82132,107.22504,95.74689,79.00999,15.78321,58.23065-136.55643,6.65981-195.01705-8.30058-9.70392-16.49529-17.64831-26.59011-26.21761-111.45587-90.76702-125.80313,47.72861-87.68867,124.6696l.39393.81816Z"/>
    <path class="cls-1" d="m2066.69308,479.83412c57.95947,80.84763,147.02067,86.12431,120.16992-38.62393-6.70224-56.0126-107.87774-172.85148-141.4724-94.75185-14.73375,42.9674-3.25737,95.03998,20.79534,132.62352l.50715.75227Z"/>
  </g>
  <g>
    <path class="cls-1" d="m2114.42101,1987.00855c62.28184-187.15547,480.86525-225.82366,699.04309-181.68824,202.75362,33.10938,439.36479,140.82408,579.6628,357.74562,161.78677,230.38301,186.20487,620.33476-84.61136,861.80988-242.09679,226.18139-552.43661,260.21653-842.81121,136.18991-230.33178-92.41657-421.63984-311.3126-505.19255-524.62811-6.33699-16.88612-11.12335-31.60767-14.43529-48.21826-.59241-2.93444-1.66587-7.18082.86192-9.11135,1.86286-2.38873,12.81139,5.67872,18.99237,10.61517,23.22129,18.58772,56.55483,31.91231,86.22913,21.27897,55.96742-20.3079,24.83462-70.57223,1.98795-104.90188-17.71213-26.74597-40.28523-58.69837-61.31962-92.01892-46.76969-72.78686-84.41749-154.23785-105.2786-237.87921-6.17792-24.91887-13.50209-60.63188-6.72143-80.06822,7.4111-18.75421,31.70791,4.35989,42.49917,10.05899,26.23357,17.65088,55.11832,29.80683,86.33112,35.06413,98.62372,14.85905,87.48745-89.51903,104.54064-153.49021l.22187-.75826Z"/>
    <path class="cls-1" d="m2845.97087,2574.80668c-47.78935-2.14485-102.4426,9.69966-136.92152,45.28345-53.58622,60.6775,89.00499,118.63219,165.67568,102.96005,35.82075-7.29188,92.03008-26.32269,97.97825-63.44266,3.32354-53.17241-83.36179-81.46788-125.825-84.73518l-.90741-.06566Z"/>
    <path class="cls-1" d="m2866.47323,2934.50878c-101.11943,10.17858-148.47024,86.62684-24.36418,124.33593,71.97051,25.62789,221.08611-25.21309,135.38454-91.31624-30.31133-23.03902-72.20162-35.40881-110.11226-33.08554l-.9081.06585Z"/>
  </g>
  <g>
    <path class="cls-1" d="m1537.13648,2222.37345c130.94684,147.47893-44.7696,529.17685-192.05544,695.99825-130.03592,158.99243-341.58623,309.94734-599.54914,322.94521-280.36937,24.86971-630.29054-148.94358-704.05801-504.13518-74.95454-323.02162,51.05366-608.90167,304.00693-798.22834,203.39485-157.71436,498.29462-214.52231,733.45448-169.14156,14.27094,4.56301,48.51502,8.43529,14.05433,21.1696-19.12165,7.5303-39.67337,19.16498-52.12157,36.54205-15.02988,19.73754-21.80948,53.1084-1.64638,71.50302,17.77334,14.42153,42.7075,12.27223,64.71729,12.22394,45.78807-1.99932,99.32402-7.7799,150.56491-8.46005,77.59629-1.72916,157.95776,7.38562,232.18284,28.58851,24.66825,7.11092,59.25728,18.62593,72.70058,34.21381,12.53797,15.79224-19.62435,25.27021-29.95332,31.76229-28.39779,13.8849-53.36265,32.81191-73.51763,57.20565-62.16798,77.95756,33.81818,120.50658,80.67436,167.24162l.54578.57118Z"/>
    <path class="cls-1" d="m661.64631,2563.0069c22.61573-32.66403,39.54542-86.4712,33.70154-127.51491-23.48663-114.40595-175.7624,25.97789-183.35471,103.48007-29.04653,147.89918,93.87226,103.48199,149.11551,24.79105l.53766-.7562Z"/>
    <path class="cls-1" d="m340.83404,2398.92518c23.25794-43.88816,27.79562-147.54952-48.80608-114.80535-24.07206,10.8204-43.94947,27.2339-60.71571,47.42385-42.25394,46.61969-71.82898,183.56192,23.49328,148.61047,37.02233-15.63927,68.35002-44.69279,85.59736-80.30258l.43114-.92638Z"/>
  </g>
</svg>