<?xml version="1.0" encoding="UTF-8"?>
<svg id="Layer_2" data-name="Layer 2" xmlns="http://www.w3.org/2000/svg" viewBox="0 0 2054.86133 2254.61218">
  <defs>
    <style>
      .cls-1 {
        fill: none;
        stroke: #0063bf;
        stroke-miterlimit: 10;
        stroke-width: 54.86133px;
      }
    </style>
  </defs>
  <g id="Solo_Geist" data-name="Solo Geist">
    <g>
      <path class="cls-1" d="m251.38711,1890.99688C45.06551,1813.31615-34.51945,1298.5961,79.94547,889.77769c28.78198-102.79634,158.29116-565.34681,610.33225-768.05856,82.14675-36.83756,370.16536-160.68217,699.4819-48.00366,452.197,154.72315,587.50782,620.34375,603.47458,678.9089,135.68334,497.67843-172.53157,898.47349-226.94546,969.26851-284.64419,370.33404-717.15261,472.05133-726.27007,457.12595-3.93529-6.44162,65.4404-43.65023,68.57666-109.72265,1.01207-21.32264-4.2806-58.64384-27.43066-75.43432-55.10744-39.96943-161.88176,71.56182-363.45628,157.72631-172.8141,73.87059-336.73466,91.74053-349.74095,61.71899-7.83165-18.07713,44.2563-41.51056,75.43432-123.43798,10.18814-26.77227,27.63743-72.62454,13.71533-109.72265-25.59947-68.21377-141.56534-64.99128-205.72997-89.14965Z"/>
      <path class="cls-1" d="m1129.16832,944.63901c-14.41307,93.95261,29.7499,207.53438,82.29199,212.58764,56.08687,5.39438,127.84708-112.28842,123.43798-219.4453-2.6365-64.07673-33.63663-151.80329-82.29199-157.72631-52.6145-6.4052-111.17379,84.63885-123.43798,164.58398Z"/>
      <path class="cls-1" d="m1622.92025,951.49668c.00628,61.44777,31.48315,139.95389,75.43432,144.01098,45.87989,4.23498,91.37429-73.9476,102.86499-137.15331,14.33773-78.86609-16.32923-178.07454-61.71899-185.15697-48.04593-7.49722-116.58952,87.60517-116.58032,178.29931Z"/>
    </g>
  </g>
</svg>